<mxfile host="Electron" agent="Mozilla/5.0 (X11; Linux x86_64) AppleWebKit/537.36 (KHTML, like Gecko) draw.io/26.0.16 Chrome/132.0.6834.196 Electron/34.2.0 Safari/537.36" version="26.0.16">
  <diagram name="Page-1" id="p1V2cj0ZwSOAi5wLcW7C">
    <mxGraphModel dx="1434" dy="843" grid="1" gridSize="10" guides="1" tooltips="1" connect="1" arrows="1" fold="1" page="1" pageScale="1" pageWidth="850" pageHeight="1100" math="0" shadow="0">
      <root>
        <mxCell id="0" />
        <mxCell id="1" parent="0" />
        <mxCell id="E0w0LXNbIu04vzILxUtj-39" value="" style="rounded=0;whiteSpace=wrap;html=1;fillColor=none;dashed=1;" vertex="1" parent="1">
          <mxGeometry x="280" y="163" width="950" height="620" as="geometry" />
        </mxCell>
        <mxCell id="E0w0LXNbIu04vzILxUtj-43" value="" style="rounded=0;whiteSpace=wrap;html=1;fillColor=none;dashed=1;" vertex="1" parent="1">
          <mxGeometry x="40" y="160" width="200" height="620" as="geometry" />
        </mxCell>
        <mxCell id="E0w0LXNbIu04vzILxUtj-1" value="" style="rounded=0;whiteSpace=wrap;html=1;" vertex="1" parent="1">
          <mxGeometry x="50" y="238" width="170" height="520" as="geometry" />
        </mxCell>
        <mxCell id="E0w0LXNbIu04vzILxUtj-4" value="" style="rounded=0;whiteSpace=wrap;html=1;align=center;" vertex="1" parent="1">
          <mxGeometry x="320" y="240" width="240" height="520" as="geometry" />
        </mxCell>
        <mxCell id="E0w0LXNbIu04vzILxUtj-5" value="Bronze Layer" style="text;html=1;align=center;verticalAlign=middle;whiteSpace=wrap;rounded=0;strokeColor=#d79b00;fontSize=22;fillColor=#CD7F32;" vertex="1" parent="1">
          <mxGeometry x="320" y="200" width="240" height="40" as="geometry" />
        </mxCell>
        <mxCell id="E0w0LXNbIu04vzILxUtj-7" value="Silver Layer" style="text;html=1;align=center;verticalAlign=middle;whiteSpace=wrap;rounded=0;strokeColor=#666666;fontSize=22;fillColor=#C0C0C0;gradientColor=none;" vertex="1" parent="1">
          <mxGeometry x="640" y="198" width="240" height="40" as="geometry" />
        </mxCell>
        <mxCell id="E0w0LXNbIu04vzILxUtj-8" value="" style="image;aspect=fixed;html=1;points=[];align=center;fontSize=12;image=img/lib/azure2/general/Folder_Blank.svg;" vertex="1" parent="1">
          <mxGeometry x="90" y="288" width="69" height="56.00000000000001" as="geometry" />
        </mxCell>
        <mxCell id="E0w0LXNbIu04vzILxUtj-9" value="" style="image;aspect=fixed;html=1;points=[];align=center;fontSize=12;image=img/lib/azure2/general/Folder_Blank.svg;" vertex="1" parent="1">
          <mxGeometry x="95.5" y="408" width="69" height="56.00000000000001" as="geometry" />
        </mxCell>
        <mxCell id="E0w0LXNbIu04vzILxUtj-10" value="CRM" style="text;html=1;align=center;verticalAlign=middle;whiteSpace=wrap;rounded=0;" vertex="1" parent="1">
          <mxGeometry x="94.5" y="344" width="60" height="30" as="geometry" />
        </mxCell>
        <mxCell id="E0w0LXNbIu04vzILxUtj-11" value="ERP" style="text;html=1;align=center;verticalAlign=middle;whiteSpace=wrap;rounded=0;" vertex="1" parent="1">
          <mxGeometry x="100" y="464" width="60" height="30" as="geometry" />
        </mxCell>
        <mxCell id="E0w0LXNbIu04vzILxUtj-12" value="&lt;b&gt;Object Type&lt;/b&gt;:&amp;nbsp;&lt;div&gt;&lt;span style=&quot;white-space: pre;&quot;&gt;&#x9;&lt;/span&gt;- CSV Files&lt;/div&gt;" style="text;html=1;align=left;verticalAlign=top;whiteSpace=wrap;rounded=0;strokeColor=default;spacing=12;" vertex="1" parent="1">
          <mxGeometry x="50" y="518" width="170" height="240" as="geometry" />
        </mxCell>
        <mxCell id="E0w0LXNbIu04vzILxUtj-14" value="Gold Layer" style="text;html=1;align=center;verticalAlign=middle;whiteSpace=wrap;rounded=0;strokeColor=#B09500;fontSize=22;fillColor=#FFD700;fontColor=#000000;" vertex="1" parent="1">
          <mxGeometry x="960" y="198" width="240" height="42" as="geometry" />
        </mxCell>
        <mxCell id="E0w0LXNbIu04vzILxUtj-15" value="" style="image;aspect=fixed;html=1;points=[];align=center;fontSize=12;image=img/lib/azure2/general/Code.svg;" vertex="1" parent="1">
          <mxGeometry x="420" y="296" width="40" height="32.5" as="geometry" />
        </mxCell>
        <mxCell id="E0w0LXNbIu04vzILxUtj-16" value="Stored Procedure" style="text;html=1;align=center;verticalAlign=middle;whiteSpace=wrap;rounded=0;" vertex="1" parent="1">
          <mxGeometry x="390" y="266" width="100" height="30" as="geometry" />
        </mxCell>
        <mxCell id="E0w0LXNbIu04vzILxUtj-17" value="" style="endArrow=classic;html=1;rounded=0;exitX=0.375;exitY=0.892;exitDx=0;exitDy=0;exitPerimeter=0;" edge="1" parent="1">
          <mxGeometry width="50" height="50" relative="1" as="geometry">
            <mxPoint x="439.5" y="332.5" as="sourcePoint" />
            <mxPoint x="440" y="360" as="targetPoint" />
          </mxGeometry>
        </mxCell>
        <mxCell id="E0w0LXNbIu04vzILxUtj-18" value="" style="html=1;verticalLabelPosition=bottom;align=center;labelBackgroundColor=#ffffff;verticalAlign=top;strokeWidth=2;strokeColor=#FFFFFF;shadow=0;dashed=0;shape=mxgraph.ios7.icons.data;fillColor=#CD7F32;" vertex="1" parent="1">
          <mxGeometry x="403" y="366" width="72" height="60" as="geometry" />
        </mxCell>
        <mxCell id="E0w0LXNbIu04vzILxUtj-20" value="Raw data" style="text;html=1;align=center;verticalAlign=middle;whiteSpace=wrap;rounded=0;" vertex="1" parent="1">
          <mxGeometry x="415" y="426" width="60" height="30" as="geometry" />
        </mxCell>
        <mxCell id="E0w0LXNbIu04vzILxUtj-21" value="&lt;b&gt;Object Type:&amp;nbsp;&lt;/b&gt;&lt;div&gt;&lt;span style=&quot;white-space: pre;&quot;&gt;&#x9;&lt;/span&gt;- Tables&lt;div&gt;&lt;br&gt;&lt;/div&gt;&lt;div&gt;&lt;b&gt;Load&lt;/b&gt;:&lt;/div&gt;&lt;div&gt;&lt;span style=&quot;white-space: pre;&quot;&gt;&#x9;&lt;/span&gt;- Batch processing&lt;br&gt;&lt;/div&gt;&lt;div&gt;&lt;span style=&quot;white-space: pre;&quot;&gt;&#x9;&lt;/span&gt;- Full load&lt;br&gt;&lt;/div&gt;&lt;div&gt;&lt;span style=&quot;white-space: pre;&quot;&gt;&#x9;&lt;/span&gt;- Truncate &amp;amp; insert&lt;br&gt;&lt;/div&gt;&lt;div&gt;&lt;br&gt;&lt;/div&gt;&lt;div&gt;&lt;b&gt;Transformations&lt;/b&gt;:&lt;/div&gt;&lt;div&gt;&lt;span style=&quot;white-space: pre;&quot;&gt;&#x9;&lt;/span&gt;- None&lt;br&gt;&lt;/div&gt;&lt;div&gt;&lt;br&gt;&lt;/div&gt;&lt;div&gt;&lt;b&gt;Data Model&lt;/b&gt;:&lt;/div&gt;&lt;div&gt;&lt;span style=&quot;white-space: pre;&quot;&gt;&lt;span style=&quot;white-space: pre;&quot;&gt;&#x9;&lt;/span&gt;&lt;/span&gt;- None (as-is)&lt;br&gt;&lt;/div&gt;&lt;div&gt;&lt;br&gt;&lt;/div&gt;&lt;/div&gt;" style="text;html=1;align=left;verticalAlign=top;whiteSpace=wrap;rounded=0;strokeColor=default;spacing=12;" vertex="1" parent="1">
          <mxGeometry x="320" y="520" width="240" height="240" as="geometry" />
        </mxCell>
        <mxCell id="E0w0LXNbIu04vzILxUtj-22" value="" style="rounded=0;whiteSpace=wrap;html=1;align=center;" vertex="1" parent="1">
          <mxGeometry x="640" y="238" width="240" height="522" as="geometry" />
        </mxCell>
        <mxCell id="E0w0LXNbIu04vzILxUtj-23" value="" style="image;aspect=fixed;html=1;points=[];align=center;fontSize=12;image=img/lib/azure2/general/Code.svg;" vertex="1" parent="1">
          <mxGeometry x="740" y="294" width="40" height="32.5" as="geometry" />
        </mxCell>
        <mxCell id="E0w0LXNbIu04vzILxUtj-24" value="Stored Procedure" style="text;html=1;align=center;verticalAlign=middle;whiteSpace=wrap;rounded=0;" vertex="1" parent="1">
          <mxGeometry x="710" y="264" width="100" height="30" as="geometry" />
        </mxCell>
        <mxCell id="E0w0LXNbIu04vzILxUtj-25" value="" style="endArrow=classic;html=1;rounded=0;exitX=0.375;exitY=0.892;exitDx=0;exitDy=0;exitPerimeter=0;" edge="1" parent="1">
          <mxGeometry width="50" height="50" relative="1" as="geometry">
            <mxPoint x="759.5" y="330.5" as="sourcePoint" />
            <mxPoint x="760" y="358" as="targetPoint" />
          </mxGeometry>
        </mxCell>
        <mxCell id="E0w0LXNbIu04vzILxUtj-26" value="" style="html=1;verticalLabelPosition=bottom;align=center;labelBackgroundColor=#ffffff;verticalAlign=top;strokeWidth=2;strokeColor=#FFFFFF;shadow=0;dashed=0;shape=mxgraph.ios7.icons.data;fillColor=#C0C0C0;" vertex="1" parent="1">
          <mxGeometry x="723" y="364" width="72" height="60" as="geometry" />
        </mxCell>
        <mxCell id="E0w0LXNbIu04vzILxUtj-27" value="Cleaned, standardized data" style="text;html=1;align=center;verticalAlign=middle;whiteSpace=wrap;rounded=0;" vertex="1" parent="1">
          <mxGeometry x="670" y="424" width="180" height="30" as="geometry" />
        </mxCell>
        <mxCell id="E0w0LXNbIu04vzILxUtj-28" value="&lt;b&gt;Object Type:&amp;nbsp;&lt;/b&gt;&lt;div&gt;&lt;span style=&quot;white-space: pre;&quot;&gt;&#x9;&lt;/span&gt;- Tables&lt;div&gt;&lt;br&gt;&lt;/div&gt;&lt;div&gt;&lt;b&gt;Load&lt;/b&gt;:&lt;/div&gt;&lt;div&gt;&lt;span style=&quot;white-space: pre;&quot;&gt;&#x9;&lt;/span&gt;- Batch processing&lt;br&gt;&lt;/div&gt;&lt;div&gt;&lt;span style=&quot;white-space: pre;&quot;&gt;&#x9;&lt;/span&gt;- Full load&lt;br&gt;&lt;/div&gt;&lt;div&gt;&lt;span style=&quot;white-space: pre;&quot;&gt;&#x9;&lt;/span&gt;- Truncate &amp;amp; insert&lt;br&gt;&lt;/div&gt;&lt;div&gt;&lt;br&gt;&lt;/div&gt;&lt;div&gt;&lt;b&gt;Transformations:&lt;/b&gt;&lt;/div&gt;&lt;div&gt;&lt;b&gt;&lt;span style=&quot;white-space: pre;&quot;&gt;&#x9;&lt;/span&gt;- &lt;/b&gt;Data cleansing&lt;br&gt;&lt;/div&gt;&lt;div&gt;&lt;span style=&quot;white-space: pre;&quot;&gt;&#x9;&lt;/span&gt;- Data standardization&lt;br&gt;&lt;/div&gt;&lt;div&gt;&lt;span style=&quot;white-space: pre;&quot;&gt;&#x9;&lt;/span&gt;- Data normalization&lt;br&gt;&lt;/div&gt;&lt;div&gt;&lt;span style=&quot;white-space: pre;&quot;&gt;&#x9;&lt;/span&gt;- Derived columns&lt;br&gt;&lt;/div&gt;&lt;div&gt;&lt;span style=&quot;white-space: pre;&quot;&gt;&#x9;&lt;/span&gt;- Data enrichment&lt;br&gt;&lt;/div&gt;&lt;div&gt;&lt;br&gt;&lt;/div&gt;&lt;div&gt;&lt;b&gt;Data Model&lt;/b&gt;:&lt;/div&gt;&lt;div&gt;&lt;span style=&quot;white-space: pre;&quot;&gt;&#x9;&lt;/span&gt;- None (as-is)&lt;br&gt;&lt;/div&gt;&lt;/div&gt;" style="text;html=1;align=left;verticalAlign=top;whiteSpace=wrap;rounded=0;strokeColor=default;spacing=12;" vertex="1" parent="1">
          <mxGeometry x="640" y="480" width="240" height="280" as="geometry" />
        </mxCell>
        <mxCell id="E0w0LXNbIu04vzILxUtj-29" value="" style="rounded=0;whiteSpace=wrap;html=1;align=center;" vertex="1" parent="1">
          <mxGeometry x="960" y="240" width="240" height="520" as="geometry" />
        </mxCell>
        <mxCell id="E0w0LXNbIu04vzILxUtj-33" value="" style="html=1;verticalLabelPosition=bottom;align=center;labelBackgroundColor=#ffffff;verticalAlign=top;strokeWidth=2;strokeColor=#FFFFFF;shadow=0;dashed=0;shape=mxgraph.ios7.icons.data;fillColor=#FFD700;" vertex="1" parent="1">
          <mxGeometry x="1040" y="266" width="90" height="126" as="geometry" />
        </mxCell>
        <mxCell id="E0w0LXNbIu04vzILxUtj-34" value="Business ready data" style="text;html=1;align=center;verticalAlign=middle;whiteSpace=wrap;rounded=0;" vertex="1" parent="1">
          <mxGeometry x="1032.5" y="410" width="95" height="30" as="geometry" />
        </mxCell>
        <mxCell id="E0w0LXNbIu04vzILxUtj-35" value="&lt;b&gt;Object Type:&amp;nbsp;&lt;/b&gt;&lt;div&gt;&lt;span style=&quot;white-space: pre;&quot;&gt;&#x9;&lt;/span&gt;- Views&lt;div&gt;&lt;br&gt;&lt;/div&gt;&lt;div&gt;&lt;b&gt;Load&lt;/b&gt;:&lt;/div&gt;&lt;div&gt;&lt;span style=&quot;white-space: pre;&quot;&gt;&#x9;&lt;/span&gt;- None&lt;/div&gt;&lt;div&gt;&lt;br&gt;&lt;/div&gt;&lt;div&gt;&lt;b&gt;Transformations&lt;/b&gt;:&lt;/div&gt;&lt;div&gt;&lt;span style=&quot;white-space: pre;&quot;&gt;&#x9;&lt;/span&gt;- Data integrations&lt;br&gt;&lt;/div&gt;&lt;div&gt;&lt;span style=&quot;white-space: pre;&quot;&gt;&#x9;&lt;/span&gt;- Aggregations&lt;br&gt;&lt;/div&gt;&lt;div&gt;&lt;span style=&quot;white-space: pre;&quot;&gt;&#x9;&lt;/span&gt;- Business Logics&lt;br&gt;&lt;/div&gt;&lt;div&gt;&lt;br&gt;&lt;/div&gt;&lt;div&gt;&lt;b&gt;Data Model&lt;/b&gt;:&lt;/div&gt;&lt;div&gt;&lt;span style=&quot;white-space: pre;&quot;&gt;&#x9;&lt;/span&gt;- Star schema&lt;br&gt;&lt;/div&gt;&lt;div&gt;&lt;br&gt;&lt;/div&gt;&lt;div&gt;&lt;br&gt;&lt;/div&gt;&lt;/div&gt;" style="text;html=1;align=left;verticalAlign=top;whiteSpace=wrap;rounded=0;strokeColor=default;spacing=12;" vertex="1" parent="1">
          <mxGeometry x="960" y="480" width="240" height="280" as="geometry" />
        </mxCell>
        <mxCell id="E0w0LXNbIu04vzILxUtj-36" value="" style="shape=singleArrow;whiteSpace=wrap;html=1;fillColor=#b0e3e6;strokeColor=#0e8088;" vertex="1" parent="1">
          <mxGeometry x="230" y="360" width="80" height="44" as="geometry" />
        </mxCell>
        <mxCell id="E0w0LXNbIu04vzILxUtj-37" value="" style="shape=singleArrow;whiteSpace=wrap;html=1;fillColor=#b0e3e6;strokeColor=#0e8088;" vertex="1" parent="1">
          <mxGeometry x="570" y="360" width="60" height="44" as="geometry" />
        </mxCell>
        <mxCell id="E0w0LXNbIu04vzILxUtj-38" value="" style="shape=singleArrow;whiteSpace=wrap;html=1;fillColor=#b0e3e6;strokeColor=#0e8088;" vertex="1" parent="1">
          <mxGeometry x="890" y="358" width="60" height="44" as="geometry" />
        </mxCell>
        <mxCell id="E0w0LXNbIu04vzILxUtj-41" value="" style="outlineConnect=0;fontColor=#232F3E;gradientColor=none;fillColor=#66B2FF;strokeColor=none;dashed=0;verticalLabelPosition=bottom;verticalAlign=top;align=center;html=1;fontSize=12;fontStyle=0;aspect=fixed;pointerEvents=1;shape=mxgraph.aws4.rds_postgresql_instance;" vertex="1" parent="1">
          <mxGeometry x="290" y="100" width="78" height="78" as="geometry" />
        </mxCell>
        <mxCell id="E0w0LXNbIu04vzILxUtj-42" value="&lt;div&gt;Data Warehouse&lt;/div&gt;" style="text;html=1;align=center;verticalAlign=middle;whiteSpace=wrap;rounded=0;fontSize=23;fillColor=default;glass=1;shadow=1;" vertex="1" parent="1">
          <mxGeometry x="610" y="130" width="390" height="40" as="geometry" />
        </mxCell>
        <mxCell id="E0w0LXNbIu04vzILxUtj-46" value="&lt;div&gt;Data Source&lt;/div&gt;" style="text;html=1;align=center;verticalAlign=middle;whiteSpace=wrap;rounded=0;fontSize=23;fillColor=default;glass=1;shadow=1;" vertex="1" parent="1">
          <mxGeometry x="65" y="138" width="155" height="40" as="geometry" />
        </mxCell>
      </root>
    </mxGraphModel>
  </diagram>
</mxfile>
